<svg width="24" height="16" viewBox="0 0 24 16" fill="none" xmlns="http://www.w3.org/2000/svg">
<path d="M0.765957 15.0638H0C0 15.4868 0.34293 15.8298 0.765957 15.8298V15.0638ZM2.80851 15.8298C3.23153 15.8298 3.57447 15.4868 3.57447 15.0638C3.57447 14.6408 3.23153 14.2979 2.80851 14.2979V15.8298ZM4.0207 10.8279C4.43038 10.7225 4.67701 10.3049 4.57157 9.89525C4.46612 9.48552 4.04854 9.23888 3.63887 9.34437L4.0207 10.8279ZM5.61709 7.44143C6.01593 7.58247 6.45355 7.37341 6.59452 6.9745C6.73548 6.57569 6.52644 6.13808 6.12759 5.99714L5.61709 7.44143ZM6.12759 1.66249C6.52644 1.52151 6.73548 1.0839 6.59452 0.685052C6.45355 0.286203 6.01593 0.0771576 5.61709 0.218135L6.12759 1.66249ZM23.234 15.0638V15.8298C23.6571 15.8298 24 15.4868 24 15.0638H23.234ZM21.1915 14.2979C20.7685 14.2979 20.4255 14.6408 20.4255 15.0638C20.4255 15.4868 20.7685 15.8298 21.1915 15.8298V14.2979ZM20.3611 9.34437C19.9515 9.23888 19.5339 9.48552 19.4285 9.89525C19.323 10.3049 19.5696 10.7225 19.9793 10.8279L20.3611 9.34437ZM18.3829 0.218135C17.9841 0.0771576 17.5465 0.286203 17.4055 0.685052C17.2645 1.0839 17.4735 1.52151 17.8724 1.66249L18.3829 0.218135ZM17.8724 5.99714C17.4735 6.13808 17.2645 6.57569 17.4055 6.9745C17.5465 7.37341 17.9841 7.58247 18.3829 7.44143L17.8724 5.99714ZM18.1277 15.0638V15.8298C18.5507 15.8298 18.8936 15.4868 18.8936 15.0638H18.1277ZM5.87234 15.0638H5.10638C5.10638 15.4868 5.44932 15.8298 5.87234 15.8298V15.0638ZM0 14.0426V15.0638H1.53191V14.0426H0ZM0.765957 15.8298H2.80851V14.2979H0.765957V15.8298ZM1.53191 14.0426C1.53191 12.497 2.58898 11.1965 4.0207 10.8279L3.63887 9.34437C1.54673 9.88279 0 11.7811 0 14.0426H1.53191ZM3.06383 3.8298C3.06383 5.49851 4.13065 6.91608 5.61709 7.44143L6.12759 5.99714C5.23407 5.6813 4.59574 4.82911 4.59574 3.8298H3.06383ZM5.61709 0.218135C4.13065 0.74351 3.06383 2.16108 3.06383 3.8298H4.59574C4.59574 2.83049 5.23407 1.97829 6.12759 1.66249L5.61709 0.218135ZM22.4681 14.0426V15.0638H24V14.0426H22.4681ZM23.234 14.2979H21.1915V15.8298H23.234V14.2979ZM24 14.0426C24 11.7811 22.4533 9.88279 20.3611 9.34437L19.9793 10.8279C21.4111 11.1965 22.4681 12.497 22.4681 14.0426H24ZM17.8724 1.66249C18.766 1.97829 19.4043 2.83049 19.4043 3.8298H20.9362C20.9362 2.16108 19.8693 0.74351 18.3829 0.218135L17.8724 1.66249ZM19.4043 3.8298C19.4043 4.82911 18.766 5.6813 17.8724 5.99714L18.3829 7.44143C19.8693 6.91608 20.9362 5.49851 20.9362 3.8298H19.4043ZM9.95745 10.7234H14.0426V9.19149H9.95745V10.7234ZM17.3617 14.0426V15.0638H18.8936V14.0426H17.3617ZM6.6383 15.0638V14.0426H5.10638V15.0638H6.6383ZM14.0426 10.7234C15.8756 10.7234 17.3617 12.2095 17.3617 14.0426H18.8936C18.8936 11.3633 16.7218 9.19149 14.0426 9.19149V10.7234ZM9.95745 9.19149C7.27828 9.19149 5.10638 11.3633 5.10638 14.0426H6.6383C6.6383 12.2095 8.12433 10.7234 9.95745 10.7234V9.19149ZM18.1277 14.2979H5.87234V15.8298H18.1277V14.2979ZM14.2979 3.82979C14.2979 5.09887 13.269 6.12766 12 6.12766V7.65957C14.1152 7.65957 15.8298 5.94495 15.8298 3.82979H14.2979ZM12 6.12766C10.731 6.12766 9.70213 5.09887 9.70213 3.82979H8.17021C8.17021 5.94495 9.88486 7.65957 12 7.65957V6.12766ZM9.70213 3.82979C9.70213 2.56071 10.731 1.53191 12 1.53191V0C9.88486 0 8.17021 1.71465 8.17021 3.82979H9.70213ZM12 1.53191C13.269 1.53191 14.2979 2.56071 14.2979 3.82979H15.8298C15.8298 1.71465 14.1152 0 12 0V1.53191Z" fill="#5C5CC4"/>
</svg>
