<svg width="24" height="24" viewBox="0 0 24 24" fill="none" xmlns="http://www.w3.org/2000/svg">
<path fill-rule="evenodd" clip-rule="evenodd" d="M5.00001 8.08839C5.55229 8.08839 6.00001 8.56526 6.00001 9.15351V20.8698H18V9.15351C18 8.56526 18.4477 8.08839 19 8.08839C19.5523 8.08839 20 8.56526 20 9.15351V20.8698C20 22.0404 19.1143 23 18.0042 23H5.99931C4.89383 23 4.00001 22.0453 4.00001 20.8698V9.15351C4.00001 8.56526 4.44772 8.08839 5.00001 8.08839Z" fill="#5C5CC4"/>
<path fill-rule="evenodd" clip-rule="evenodd" d="M10.6621 1.54728C11.4215 0.819255 12.5753 0.816186 13.337 1.54641L22.6687 10.4918L21.331 12.0754L12 3.13067L2.66897 12.0754C2.25846 12.4689 1.62617 12.4335 1.25671 11.9963C0.887255 11.559 0.920534 10.8856 1.33104 10.492L10.6621 1.54728ZM22.7433 11.9963C22.3738 12.4335 21.7415 12.4689 21.331 12.0754L22.6687 10.4918C23.0792 10.8853 23.1128 11.559 22.7433 11.9963Z" fill="#5C5CC4"/>
</svg>
